<?xml version="1.0" encoding="UTF-8" standalone="no"?>
<!-- Created with Inkscape (http://www.inkscape.org/) -->

<svg
   version="1.1"
   id="svg1"
   width="5000"
   height="4200"
   viewBox="0 0 5000 4200"
   sodipodi:docname="slider-img.svg"
   inkscape:version="1.3 (0e150ed, 2023-07-21)"
   inkscape:export-filename="slider-img.svg"
   inkscape:export-xdpi="96"
   inkscape:export-ydpi="96"
   xmlns:inkscape="http://www.inkscape.org/namespaces/inkscape"
   xmlns:sodipodi="http://sodipodi.sourceforge.net/DTD/sodipodi-0.dtd"
   xmlns="http://www.w3.org/2000/svg"
   xmlns:svg="http://www.w3.org/2000/svg">
  <defs
     id="defs1">
    <inkscape:path-effect
       effect="perspective-envelope"
       up_left_point="3707.138,2160.1753"
       up_right_point="4552.28,2027.4642"
       down_left_point="3415.2597,3499.262"
       down_right_point="4292.7436,3326.7764"
       id="path-effect1"
       is_visible="true"
       lpeversion="1"
       deform_type="perspective"
       horizontal_mirror="false"
       vertical_mirror="false"
       overflow_perspective="false" />
  </defs>
  <sodipodi:namedview
     id="namedview1"
     pagecolor="#ffffff"
     bordercolor="#000000"
     borderopacity="0.25"
     inkscape:showpageshadow="2"
     inkscape:pageopacity="0.0"
     inkscape:pagecheckerboard="0"
     inkscape:deskcolor="#d1d1d1"
     showgrid="false"
     inkscape:zoom="0.0974"
     inkscape:cx="2505.1335"
     inkscape:cy="1278.2341"
     inkscape:window-width="1920"
     inkscape:window-height="1051"
     inkscape:window-x="0"
     inkscape:window-y="0"
     inkscape:window-maximized="1"
     inkscape:current-layer="g1" />
  <g
     id="g1"
     inkscape:groupmode="layer"
     inkscape:label="1">
    <path
       id="path3"
       d="M 35515.7,12735 1875,6006.84 C 2772.77,4596.05 37564.3,-5716.88 35515.7,12735 Z"
       style="fill:#292229;fill-opacity:1;fill-rule:nonzero;stroke:none"
       transform="matrix(0.13333333,0,0,-0.13333333,0,4200)" />
    <path
       id="path4"
       d="M 16192.2,5981.99 24209.9,9097.23 22062,5911.68 Z"
       style="display:inline;fill:#00ffff;fill-opacity:1;fill-rule:nonzero;stroke:none"
       transform="matrix(0.13333333,0,0,-0.13333333,0,4200)" />
    <path
       id="path5"
       d="m 14257.6,21506.3 c 119.5,2123.8 686.1,4247.5 1406.1,6371.3 l 1406,615.1 878.8,1142.5 1274.3,-703 1054.5,-307.6 c 2023.2,-1808.9 2529.3,-3130.6 3256.2,-4468.1 l -1704.1,-4762.6 c 854.2,-122.6 953.3,-497.1 1304,-787.6 162.3,-1160.5 98,-1641.6 87.9,-2284.9 1110.4,-538.1 1605,-1164.2 2328.8,-1757.5 L 25286.4,7885.04 21551.6,7577.46 18915.2,6435.04 C 16071.9,5587.34 12666.7,5301.68 9380.31,4897.15 L 7051.48,5995.62 c -418.28,2404.03 -505.43,5604.88 263.68,9447.08 l 1669.68,3515.1 c 1420.76,962.1 2841.46,1399.5 4262.16,1757.6 z"
       style="display:inline;fill:#3260b4;fill-opacity:1;fill-rule:nonzero;stroke:none"
       transform="matrix(0.13333333,0,0,-0.13333333,0,4200)" />
    <path
       id="path5-1"
       d="m 1935.0133,1366.4934 c 15.9333,-283.1733 91.48,-566.33331 187.48,-849.50664 l 187.4666,-82.01333 117.1734,-152.33333 169.9066,93.73333 140.6,41.01333 c 269.76,241.18666 337.24,417.41332 434.16,595.74664 l -227.2133,635.0133 c 113.8933,16.3467 127.1067,66.28 173.8667,105.0134 21.64,154.7333 13.0666,218.88 11.72,304.6533 148.0533,71.7467 214,155.2267 310.5066,234.3333 l -35.16,890.5147 -497.9733,41.0106 -351.52,152.3227 c -379.1067,113.0267 -833.1333,151.1147 -1271.3186,205.052 L 974.1973,3434.584 c -55.77066,-320.5373 -67.39066,-747.3173 35.1573,-1259.6106 l 222.624,-468.68 c 189.4347,-128.28 378.8614,-186.6 568.288,-234.3467 z"
       style="display:inline;fill:#292229;fill-opacity:1;fill-rule:nonzero;stroke:none;stroke-width:0.133333" />
    <path
       id="path7"
       d="m 18915.2,6435.04 c -275.7,1328.83 149.1,2570.16 834.9,3778.76 l 1713.6,-43.9 2109.1,219.7 439.4,-3515.19 -1324.1,19.46 z"
       style="display:inline;fill:#3260b4;fill-opacity:1;fill-rule:nonzero;stroke:none"
       transform="matrix(0.13333333,0,0,-0.13333333,0,4200)" />
    <path
       id="path7-7"
       style="display:inline;fill:#00ffff;fill-opacity:1;fill-rule:nonzero;stroke:none;stroke-width:0.133333"
       d="m 2871.3496,3005.4746 c -29.8801,0.6185 -59.7452,-0.9167 -89.6145,-1.4586 -31.4189,-0.8061 -62.8377,-1.6122 -94.2566,-2.4183 -8.8085,17.1181 -17.1992,34.4528 -25.0723,52.0214 -7.5645,16.9049 -14.7034,34.1763 -21.1413,51.5375 -6.5028,17.4992 -12.404,35.3064 -17.4909,53.3241 -2.8043,9.9319 -5.4267,20.0827 -7.7385,30.161 -5.4859,23.9402 -9.4097,48.1678 -11.5132,72.6495 -1.2251,14.2522 -1.7897,28.5486 -1.7022,42.9053 0.01,1.7503 0.03,3.5006 0.059,5.2508 139.1068,-16.906 278.2133,-33.8145 417.3203,-50.7188 25.6765,0.3814 51.3529,0.7631 77.0293,1.1445 -11.4433,-91.4492 -22.8867,-182.8984 -34.3301,-274.3476 -63.8496,6.6497 -127.6992,13.2995 -191.5488,19.9492 z" />
    <path
       id="path8"
       d="m 18473.3,26329.6 c -53.5,8.5 -101.5,-13 -153.4,-44.6 -103.9,-63.4 -229.2,-183.7 -376.8,-346.1 C 17648,25614 17271.9,25121.4 16900.2,24607.6 16156.6,23580 15432,22468.7 15432,22468.7 c -17.4,-26.7 -9.8,-62.4 16.9,-79.9 26.7,-17.4 62.4,-9.9 79.9,16.8 0,0 723.8,1109.9 1465,2134.3 370.6,512.3 746,1003.4 1034.8,1321.4 144.5,158.9 269.2,274.8 351.5,325.1 41.2,25 70.3,29.8 75.1,29.1 2.5,-0.4 0.2,0.8 1.6,-1 1.5,-1.7 5.9,-8.5 9,-23.2 13.3,-62.1 -1.2,-220.4 -47.6,-430.2 -46.3,-209.8 -120.9,-475.8 -215,-778.6 -188,-605.6 -453.5,-1358.2 -725,-2109.3 -271.6,-751.2 -549.1,-1501.1 -762.1,-2103 -106.5,-301 -196.9,-564.9 -262.4,-774.1 -65.5,-209.2 -106.4,-359.4 -113.5,-451.7 -1.1,-15.2 3.8,-30.3 13.8,-42 10,-11.6 24.2,-18.8 39.5,-20 15.3,-1.1 30.4,3.8 42.1,13.8 11.6,10 18.8,24.2 19.9,39.5 5,64.7 43.8,219.2 108.5,425.9 64.7,206.7 154.8,469.9 261,770.2 212.6,600.6 490.2,1350.4 761.9,2102.1 271.7,751.7 537.5,1505.3 726.7,2114.3 94.5,304.6 169.9,572.9 217.4,788.1 47.6,215.1 70.8,372.2 47.9,479.1 -5.9,27.6 -16.1,52.9 -34.1,74 -18,21.2 -44.8,36 -71.5,40.2 z"
       style="display:inline;fill:#3260b4;fill-opacity:1;fill-rule:nonzero;stroke:none"
       transform="matrix(0.13333333,0,0,-0.13333333,0,4200)" />
    <path
       id="path9"
       d="m 13599,10472 c -31.9,0.9 -58.4,-24.1 -59.4,-55.9 -0.4,-15.4 5.2,-30.2 15.7,-41.4 10.5,-11.2 25,-17.7 40.3,-18.2 0,0 796.3,-24.1 1640.6,-66.3 422.1,-21.1 856.1,-46.7 1208,-76 176,-14.7 331.6,-30.2 454.2,-46.5 122.5,-16.3 214.7,-35.1 251.8,-48.9 185.7,-69.7 243.9,-130.68 301.8,-200.17 57.9,-69.53 118,-154.92 272.1,-231.91 89.6,-44.84 187.3,-36.33 274.1,-3.17 86.7,33.17 166.5,90 235.9,150.04 127.1,109.69 202.5,214.51 217.7,235.11 l 1302.2,87.5 c 15.3,1 29.6,8.1 39.6,19.7 10.1,11.5 15.2,26.6 14.1,41.9 -1.1,15.3 -8.1,29.5 -19.6,39.6 -11.6,10.1 -26.7,15.1 -42,14.1 l -1324.3,-89.2 c -17,-1.1 -32.7,-9.8 -42.8,-23.6 0,0 -93.8,-128.5 -220.4,-237.8 -63.3,-54.69 -134.3,-103.6 -201.5,-129.3 -67.2,-25.66 -126.2,-29.18 -181.4,-1.56 -135.7,67.85 -172.3,127.26 -235,202.58 -62.8,75.38 -149.4,159.18 -350,234.38 -59.5,22.3 -151.6,38.4 -277.2,55.1 -125.6,16.7 -282.4,32.4 -459.6,47.1 -354.2,29.6 -789.3,55.4 -1212.1,76.5 -845.7,42.3 -1642.8,66.3 -1642.8,66.3 z"
       style="display:inline;fill:#3260b4;fill-opacity:1;fill-rule:nonzero;stroke:none"
       transform="matrix(0.13333333,0,0,-0.13333333,0,4200)" />
    <path
       id="path10"
       d="m 22694.9,4945.82 -6573,262.89 70.3,773.28 5869.8,-70.31 2003.5,9736.12 10755.4,1757.4 804.1,-401.5 z"
       style="display:inline;fill:#292229;fill-opacity:1;fill-rule:nonzero;stroke:none"
       transform="matrix(0.13333333,0,0,-0.13333333,0,4200)" />
    <path
       id="path11"
       d="m 12275.2,10855.3 c 0,0 -644.9,-218.9 -1386.3,-644.3 -741.5,-425.41 -1584.17,-1057.09 -1979.21,-1896.62 -6.57,-13.87 -7.31,-29.77 -2.11,-44.22 5.23,-14.42 15.94,-26.18 29.84,-32.7 13.87,-6.52 29.81,-7.3 44.22,-2.07 14.45,5.2 26.21,15.94 32.7,29.81 377.5,802.18 1200.56,1426.09 1931.86,1845.6 731.2,419.6 1365.9,635.1 1365.9,635.1 14.6,4.9 26.5,15.4 33.3,29.2 6.8,13.7 7.8,29.6 2.8,44.1 -10.2,30.1 -42.9,46.3 -73,36.1 z"
       style="fill:#3260b4;fill-opacity:1;fill-rule:nonzero;stroke:none"
       transform="matrix(0.13333333,0,0,-0.13333333,0,4200)" />
    <path
       id="path12"
       d="m 12553.3,10441.6 c -988.6,-296.6 -1409.7,-1098.05 -1578,-1814.53 -168.3,-716.48 -91,-1358.12 -91,-1358.12 1.9,-15.24 9.6,-29.11 21.7,-38.6 12.1,-9.49 27.4,-13.75 42.6,-11.91 31.7,3.86 54.2,32.65 50.3,64.29 0,0 -74.3,624.07 88.7,1317.93 163,693.91 556.2,1447.54 1498.9,1730.34 30.5,9.2 47.8,41.5 38.6,72 -9.2,30.4 -41.3,47.6 -71.8,38.6 z"
       style="fill:#3260b4;fill-opacity:1;fill-rule:nonzero;stroke:none"
       transform="matrix(0.13333333,0,0,-0.13333333,0,4200)" />
    <path
       id="path13"
       d="m 14914.7,10113.1 c -14.9,3.7 -30.6,1.4 -43.8,-6.4 -13.2,-7.9 -22.7,-20.7 -26.4,-35.6 0,0 -172.7,-684.97 -325.3,-1327.15 -76.3,-321.1 -147.6,-631.33 -189.9,-841.06 -21.2,-104.84 -35.3,-182.77 -39.3,-231.25 -1.1,-12.11 -1.6,-22.15 -0.7,-33.83 0.5,-5.82 1.1,-11.91 4.7,-21.87 3.7,-9.96 13.7,-30.63 40.4,-38.36 26.8,-7.74 47.4,5 56,11.95 8.5,6.95 12.1,12.15 15.5,17.15 7,10.04 11.6,19.73 17.4,32.03 83.6,179.14 299.8,725.67 587.7,1233.13 144,253.75 305.8,496.44 473.5,674.33 167.8,177.85 339.6,286.92 499.7,291.92 31.9,1.09 56.8,27.73 55.8,59.57 -1.1,31.79 -27.6,56.83 -59.4,55.93 -208.2,-6.48 -402,-139.02 -580.2,-328 -178.3,-188.99 -343.2,-438.25 -489.8,-696.68 -180.8,-318.56 -317.6,-617.5 -426.8,-866.06 41.8,193.36 88.2,403.87 147.7,654.45 152.4,641.1 324.9,1325.6 324.9,1325.6 7.8,30.9 -10.8,62.3 -41.8,70.2 z"
       style="fill:#3260b4;fill-opacity:1;fill-rule:nonzero;stroke:none"
       transform="matrix(0.13333333,0,0,-0.13333333,0,4200)" />
    <path
       id="path14"
       d="m 9945.62,18332.3 c -14.45,-5 -26.32,-15.7 -32.92,-29.5 -6.68,-13.8 -7.62,-29.7 -2.58,-44.1 5.04,-14.5 15.62,-26.4 29.41,-33.1 0,0 421.17,-202.5 878.27,-477.5 228.6,-137.6 466,-293.2 662.8,-449.4 196.8,-156.3 352.4,-315.1 418,-446.5 136.8,-273.5 296.2,-1003 414,-1652.8 117.2,-646.8 197.6,-1216.3 198.3,-1221.3 l -97.2,-1491 c -1.4,-21.4 9.2,-41.9 27.6,-53 18.3,-11.2 41.3,-11.3 59.7,-0.3 0,0 10.2,5.4 20.9,6.6 10.9,1.2 12.6,5 24.7,-13.1 12,-18.2 29.3,-71.2 24.3,-178.9 -5,-107.7 -30.4,-268.2 -90.4,-499.3 -8,-30.8 10.4,-62.3 41.3,-70.3 14.8,-4 30.6,-1.8 43.8,5.9 13.3,7.8 22.9,20.5 26.7,35.3 61.4,236 88.3,402.7 93.9,523 5.6,120.2 -8.7,195.9 -43.3,248.1 -28.4,43 -72.7,49.8 -109.9,52.6 l 93.4,1433.2 c 0.4,4 0.3,8 -0.2,12 0,0 -81.6,578.7 -199.9,1231.1 -118.2,652.3 -268.1,1371.4 -424.4,1683.9 -80.7,161.6 -246.6,324.1 -449.6,485.2 -202.9,161.1 -443.7,318.8 -675,458 -462.5,278.3 -887.69,482.7 -887.69,482.7 -13.75,6.7 -29.57,7.5 -43.99,2.5 z"
       style="fill:#3260b4;fill-opacity:1;fill-rule:nonzero;stroke:none"
       transform="matrix(0.13333333,0,0,-0.13333333,0,4200)" />
    <path
       id="path15"
       d="m 13903.6,19637.7 c -32,0 -57.8,-25.9 -57.8,-57.8 0,-140.1 -24.4,-1120.9 -89.4,-1964.9 -32.4,-422.1 -75.5,-812.5 -128.8,-1043.4 -13.3,-57.8 -27.4,-105.4 -41,-139.7 -9.5,-23.9 -15.5,-30.5 -21.7,-39.2 -7.6,9.4 -17.3,19.8 -31.6,52.5 -170.5,392.3 -651.6,974.4 -1092.3,1468.2 -440.7,493.7 -840.4,893.6 -840.4,893.6 -22.5,22.6 -59.1,22.6 -81.7,0 -22.5,-22.6 -22.5,-59.1 0,-81.6 0,0 397.7,-397.9 835.9,-888.9 438.2,-491 917.7,-1080.8 1072.7,-1437.3 22.2,-51 42.4,-87.4 75.6,-113.5 16.6,-13 38.8,-23.1 63.2,-23 24.3,0.1 46.4,10.7 62.2,23.7 31.7,25.9 48.5,60 65.4,102.9 17,42.8 32.2,95 46.3,156.3 56.6,245.1 98.9,636 131.5,1060.3 65.3,848.7 89.6,1821.1 89.6,1974 0,31.9 -25.9,57.8 -57.7,57.8 z"
       style="fill:#3260b4;fill-opacity:1;fill-rule:nonzero;stroke:none"
       transform="matrix(0.13333333,0,0,-0.13333333,0,4200)" />
    <path
       id="path16"
       d="m 15297.1,16562.7 c -11.4,-10.3 -18.2,-24.6 -18.9,-40 -0.7,-15.3 4.7,-30.3 15,-41.6 0,0 407.7,-448.5 872.9,-909.6 232.6,-230.6 479.4,-464.3 698.2,-647.7 218.8,-183.4 400.4,-317.8 542.8,-348.4 125.4,-26.8 342.2,-35.9 606,-37.4 263.7,-1.6 571.5,5.6 864.9,15.8 586.9,20.4 1116.5,53 1116.5,53 31.8,2 56.1,29.3 54.1,61.1 -1.9,31.9 -29.3,56.1 -61.1,54.2 0,0 -528.5,-32.5 -1113.6,-52.8 -292.5,-10.2 -599,-17.3 -860.1,-15.8 -261.2,1.5 -479.9,12.8 -582.4,34.7 -85.4,18.4 -278.3,144.4 -492.9,324.2 -214.5,179.8 -459.9,411.9 -691.2,641.2 -462.6,458.5 -868.5,905.1 -868.5,905.1 -10.4,11.4 -24.7,18.2 -40,19 -15.4,0.7 -30.4,-4.6 -41.7,-15 z"
       style="fill:#3260b4;fill-opacity:1;fill-rule:nonzero;stroke:none"
       transform="matrix(0.13333333,0,0,-0.13333333,0,4200)" />
    <path
       id="path17"
       d="m 14746.8,15003 c -12,-9.5 -19.9,-23.4 -21.7,-38.6 -1.8,-15.3 2.5,-30.6 12,-42.6 0,0 529.1,-675.6 1078.6,-1363.6 274.8,-344 554.6,-691 776.3,-958.5 110.9,-133.8 207.2,-247.6 281.3,-331.7 37.1,-42 68.6,-76.6 94.1,-102.8 9.3,-9.6 16,-13.5 23.5,-20.8 -7.1,-2.7 -4.6,-2.9 -13.8,-5.2 -70.3,-17.4 -195.8,-27.1 -348.8,-9.5 -305.9,35.3 -723.8,176.5 -1087.8,556.4 -10.6,11 -25.1,17.5 -40.5,17.8 -15.3,0.3 -30.1,-5.5 -41.2,-16 -11.1,-10.6 -17.5,-25.2 -17.8,-40.5 -0.3,-15.3 5.4,-30.1 16,-41.2 384.7,-401.4 829.4,-553.3 1158.2,-591.3 164.5,-19 299.2,-10.1 389.6,12.2 45.3,11.1 79.4,21.2 108.6,51.7 14.5,15.2 28.4,44.7 21.4,73.5 -7,28.8 -26.3,44.6 -43.8,55 3.2,-1.9 -17.4,14.3 -40.8,38.4 -23.4,24 -53.9,57.4 -90.2,98.6 -72.8,82.4 -168.7,195.6 -279.1,328.9 -220.9,266.5 -500.4,613.3 -774.9,957 -549.2,687.4 -1077.9,1362.9 -1077.9,1362.9 -9.5,12.1 -23.4,19.9 -38.6,21.7 -15.2,1.9 -30.6,-2.4 -42.7,-11.8 z"
       style="fill:#3260b4;fill-opacity:1;fill-rule:nonzero;stroke:none"
       transform="matrix(0.13333333,0,0,-0.13333333,0,4200)" />
    <path
       id="path18"
       d="m 21615.4,17456.6 c -31.8,-1.8 -56.1,-29.1 -54.3,-60.9 0,0 96.8,-1724.7 -32.5,-2953.1 -66.7,-633.1 40.7,-1883.1 162.8,-2982.9 122.2,-1099.8 260.8,-2044.62 260.8,-2044.62 2.2,-15.16 10.3,-28.83 22.6,-38.01 12.3,-9.18 27.7,-13.12 42.9,-10.94 15.2,2.23 28.8,10.39 38,22.74 9.1,12.3 13,27.73 10.7,42.93 0,0 -138.2,943.2 -260.1,2040.7 -122,1097.6 -226.3,2353.9 -162.7,2957.9 131.1,1245.5 32.7,2971.8 32.7,2971.8 -1.8,31.8 -29,56.2 -60.9,54.4 z"
       style="fill:#3260b4;fill-opacity:1;fill-rule:nonzero;stroke:none"
       transform="matrix(0.13333333,0,0,-0.13333333,0,4200)" />
    <path
       id="path19"
       d="m 22543.1,16315.7 c -14.9,3.4 -30.6,0.8 -43.6,-7.3 -13,-8.1 -22.2,-21.1 -25.7,-36 0,0 -97.4,-422.4 -223.3,-909.8 -125.9,-487.5 -282.3,-1043.2 -391.9,-1293.6 -12.7,-29.2 0.6,-63.3 29.8,-76.1 14.1,-6.1 30,-6.5 44.3,-0.9 14.3,5.6 25.8,16.6 32,30.7 118.2,270.4 271.1,821.9 397.5,1311 126.3,489.1 224.2,912.7 224.2,912.7 3.4,15 0.8,30.7 -7.3,43.7 -8.1,13 -21.1,22.2 -36,25.6 z"
       style="fill:#3260b4;fill-opacity:1;fill-rule:nonzero;stroke:none"
       transform="matrix(0.13333333,0,0,-0.13333333,0,4200)" />
    <path
       id="path20"
       d="m 23050.5,13910.6 c -24.6,-10.8 -45.9,-27.2 -70.9,-49.9 -169.2,-153.8 -451,-300.2 -688.5,-404.9 -237.5,-104.7 -430.2,-169 -430.2,-169 -14.6,-4.8 -26.6,-15.2 -33.4,-28.9 -6.9,-13.8 -8,-29.6 -3.2,-44.2 4.9,-14.5 15.3,-26.5 29,-33.4 13.7,-6.9 29.6,-8 44.1,-3.1 0,0 197.7,66.1 440.4,173 242,106.7 528.8,252.6 717.6,423.7 -0.3,-1.8 0,-2.2 -0.4,-4.1 -18.7,-93.2 -83.6,-265 -174,-451.6 -90.3,-186.7 -206.3,-390.9 -326.4,-560.9 -120.1,-169.9 -247.9,-304.8 -343.3,-352.6 -28.5,-14.3 -40,-48.9 -25.8,-77.4 14.2,-28.5 48.9,-40.1 77.4,-25.9 132.4,66.2 261.2,212.2 386.2,389.2 125.1,176.9 243.2,385.5 335.9,577.3 92.8,191.7 160.2,364 183.2,479.4 5.8,28.8 9,54 7.9,78.5 -1.1,24.5 -4.8,53.5 -33.1,76.7 -28.3,23.1 -68,18.9 -92.5,8.1 z"
       style="fill:#3260b4;fill-opacity:1;fill-rule:nonzero;stroke:none"
       transform="matrix(0.13333333,0,0,-0.13333333,0,4200)" />
    <path
       id="path21"
       d="M 22694.9,4945.82 24644.7,15207.8 35625,17003.7 33059.5,6946.91 Z"
       style="fill:#00ffff;fill-opacity:1;fill-rule:nonzero;stroke:none"
       transform="matrix(0.13333333,0,0,-0.13333333,0,4200)" />
    <path
       id="path22"
       d="m 25594.5,24822.5 -1863.5,-3626.2 1880.7,-819.7 33.1,-1194.8 583.2,926.1 1431.5,-624 2467.8,3122.6 z"
       style="fill:#00ffff;fill-opacity:1;fill-rule:nonzero;stroke:none"
       transform="matrix(0.13333333,0,0,-0.13333333,0,4200)" />
    <path
       id="path23"
       d="m 20090.2,9687.62 c -30.8,8.36 -62.4,-9.73 -70.9,-40.39 0,0 -145.5,-530.67 -214.8,-1128.21 -34.6,-298.79 -50.4,-614.49 -18.4,-892.5 31.9,-277.97 110.4,-522.03 280.2,-667.54 11.6,-9.96 26.7,-14.88 42,-13.71 15.3,1.21 29.4,8.4 39.4,20.04 10,11.64 14.9,26.76 13.7,42.03 -1.2,15.28 -8.4,29.46 -20,39.42 -133.6,114.49 -210.2,329.18 -240.5,592.85 -30.3,263.71 -15.5,572.85 18.5,866.33 68,586.91 211.3,1110.82 211.3,1110.82 8.4,30.78 -9.8,62.5 -40.5,70.86 z"
       style="fill:#292229;fill-opacity:1;fill-rule:nonzero;stroke:none"
       transform="matrix(0.13333333,0,0,-0.13333333,0,4200)" />
    <path
       id="path27"
       d="m 25868,23535.7 2936.4,-1029.6 c 0,0 -2670.9,-1865.3 -2697.1,-1702.6 -26.1,162.7 -239.3,2732.2 -239.3,2732.2 z"
       style="fill:#292229;fill-opacity:1;fill-rule:nonzero;stroke:none"
       transform="matrix(0.13333333,0,0,-0.13333333,0,4200)" />
    <path
       id="path28"
       d="m 26545.4,21785.1 284.7,1028 474.5,-79.1 -585.2,-964.7 z"
       style="fill:#00ffff;fill-opacity:1;fill-rule:nonzero;stroke:none"
       transform="matrix(0.13333333,0,0,-0.13333333,0,4200)" />
    <path
       id="path29"
       d="m 26355.7,21484.6 205.6,-79.1 -158.2,-189.8 -63.3,79.1 z"
       style="fill:#00ffff;fill-opacity:1;fill-rule:nonzero;stroke:none"
       transform="matrix(0.13333333,0,0,-0.13333333,0,4200)" />
    <path
       id="path13-3"
       style="fill:#00ffff;fill-opacity:1;stroke:none;stroke-width:0.0740075"
       d="m 678.86368,2170.1388 -27.30283,242.4915 c 34.4255,41.0785 86.5287,103.3088 147.98754,177.0111 85.9545,103.0319 89.3948,107.125 89.7479,104.7787 0.1962,-1.3943 2.5355,-23.1787 5.1159,-48.5089 2.6547,-25.3236 5.7299,-53.8088 6.7871,-63.3741 l 1.9636,-17.4261 79.5868,85.7583 c 43.72531,47.1982 93.44761,100.7125 110.41991,119.0565 26.7532,28.8542 32.8266,34.9559 32.2758,32.7532 -0.055,-0.2265 -45.5128,-101.6657 -100.9895,-225.366 -55.47681,-123.7006 -111.31801,-248.3159 -124.13321,-276.8462 -12.8088,-28.6038 -23.6431,-51.836 -24.0311,-51.6471 -0.4623,0.1823 -1.3563,9.6141 -2.3304,23.3467 -3.0695,43.7111 -12.8529,170.4144 -13.2472,170.6772 -0.2392,0.2012 -64.0322,-95.4057 -141.78323,-212.4314 z" />
    <path
       id="path36"
       d="m 25899.1,16881.1 3241.8,2778.6 -1183.6,-2315.5 z"
       style="fill:#00ffff;fill-opacity:1;fill-rule:nonzero;stroke:none"
       transform="matrix(0.13333333,0,0,-0.13333333,0,4200)" />
    <path
       id="path6"
       d="m 17359.5,16908.6 c -24.1,1000.6 -69.8,1924.2 384.7,4121.7 1285.1,1812.3 2604.8,3382 4011.7,4341.4 l 1044.1,-1154 -1244,-4586.1 c -487,-645.1 -729.9,-1107.1 -1558.7,-2008.5 h -1758.5 z"
       style="display:inline;fill:#3260b4;fill-opacity:1;fill-rule:nonzero;stroke:none"
       transform="matrix(0.13333333,0,0,-0.13333333,0,4200)" />
    <path
       id="path6-2"
       style="display:inline;fill:#00ffff;fill-opacity:1;fill-rule:nonzero;stroke:none;stroke-width:0.133333"
       d="m 2995.0547,972.58398 c -54.0027,54.05422 -108.0844,108.03392 -161.9765,162.19582 -22.2928,22.464 -43.9398,45.5647 -65.1218,69.0782 -36.6905,40.746 -71.893,82.8149 -106.11,125.654 -42.8501,53.7045 -84.0723,108.6886 -124.2538,164.409 -2.3322,3.2382 -4.7892,6.4235 -6.4942,10.0548 -2.62,5.2544 -4.1111,10.983 -5.0979,16.7476 -9.0144,48.0003 -17.9457,96.0332 -24.856,144.3899 -5.7893,40.1329 -10.1814,80.4522 -14.2236,120.795 -0.5523,5.4479 -1.1059,10.8956 -1.6572,16.3437 63.013,0 126.026,0 189.039,0 30.8925,-36.0933 60.6173,-73.2162 88.2848,-111.8482 22.3229,-31.1921 44.6299,-62.3959 66.9457,-93.5933 56.9438,-209.8472 113.8879,-419.6943 170.834,-629.54097 -1.7708,1.77149 -3.5417,3.54297 -5.3125,5.31445 z" />
    <path
       id="path21-9"
       style="fill:#3260b4;fill-opacity:1;fill-rule:nonzero;stroke:none;stroke-width:0.133333"
       d="m 3360.8965,2249.207 c -74.7409,393.4681 -149.4818,786.9362 -224.2227,1180.4043 399.9199,-77.2207 799.8399,-154.4414 1199.7598,-231.6621 98.3529,-385.515 196.7057,-771.0299 295.0586,-1156.5449 -423.5319,69.2676 -847.0638,138.5352 -1270.5957,207.8027 z" />
    <path
       id="text1"
       style="font-size:192px;font-family:'Minstrel Poster NF';-inkscape-font-specification:'Minstrel Poster NF';white-space:pre;fill:#00ffff;stroke-width:4.80663"
       d="m 4325.007,2063.1525 -189.2686,121.3919 c -20.1277,44.3 -50.7344,111.6015 -87.2182,191.5016 -51.277,112.3476 -53.3143,116.8395 -51.4143,115.6772 1.1245,-0.6988 18.4528,-12.0512 38.528,-25.3178 20.0622,-13.1967 42.62,-27.9608 50.1936,-32.8985 l 13.7966,-8.9674 -39.9551,98.4172 c -22.1086,54.3473 -47.2118,116.2536 -55.8587,137.4793 -13.6041,33.4725 -16.351,40.8137 -14.8398,39.1658 0.1577,-0.1688 63.1974,-88.0362 139.5191,-194.4567 75.7315,-105.5972 151.448,-211.1261 168.6907,-235.1894 17.269,-24.0593 31.1361,-43.8269 30.8752,-43.9516 -0.2789,-0.1731 -7.5522,4.6741 -18.0504,11.9341 -33.4647,23.1674 -131.2556,90.1407 -131.5761,90.0544 -0.2257,-0.028 51.4365,-93.4173 114.3555,-206.7678 z m -719.7107,564.2548 -180.9469,830.1527 280.5319,-54.8012 59.9785,-282.7152 94.5945,291.9038 228.5016,-352.3139 -57.4055,279.5066 270.2696,-52.7966 160.8572,-805.296 -261.1802,44.637 -219.3328,303.2563 -104.8988,-247.8435 z"
       inkscape:path-effect="#path-effect1"
       inkscape:original-d="m 4017.1178,2165.6118 -159.0888,85.5215 c -10.4823,38.2189 -26.3824,96.0884 -45.3192,164.4735 -26.4563,95.622 -27.4982,99.4342 -25.9212,98.6608 0.9313,-0.4678 15.1755,-8.219 31.679,-17.3174 16.5309,-9.0504 35.1639,-19.1752 41.431,-22.5607 l 11.4316,-6.1472 -18.6266,84.4809 c -10.2851,46.4474 -21.8867,99.1977 -25.8932,117.2364 -6.2784,28.4087 -7.4289,34.6701 -6.3209,33.4078 0.1163,-0.1288 42.6772,-70.4692 94.5642,-156.2728 51.8872,-85.8035 104.1779,-172.2146 116.1367,-192.0164 12.0064,-19.8292 21.5743,-36.1965 21.2956,-36.3527 -0.3058,-0.2041 -6.4211,3.2241 -15.1893,8.415 -27.896,16.5411 -109.1319,63.9502 -109.458,63.8212 -0.2233,-0.061 31.0602,-79.0894 69.4922,-175.6187 z m -571.8087,411.7409 v 711.0288 h 247.5063 v -241.6202 l 145.9182,276.6651 146.839,-276.6651 v 241.6202 h 247.5063 v -711.0288 h -244.7347 l -149.6106,242.5429 -148.6899,-242.5429 z"
       transform="matrix(0.70372653,0,0,0.74047386,1116.0328,665.63766)" />
  </g>
</svg>
